<mxfile host="65bd71144e">
    <diagram id="V-kYW9GV2uXmBUqnUB78" name="PÃ¡gina-1">
        <mxGraphModel dx="4030" dy="-1517" grid="0" gridSize="10" guides="0" tooltips="1" connect="1" arrows="1" fold="1" page="0" pageScale="1" pageWidth="827" pageHeight="1169" math="0" shadow="0">
            <root>
                <mxCell id="0"/>
                <mxCell id="1" parent="0"/>
                <mxCell id="90" value="" style="shape=image;verticalLabelPosition=bottom;labelBackgroundColor=default;verticalAlign=top;aspect=fixed;imageAspect=0;image=data:image/png,iVBORw0KGgoAAAANSUhEUgAAAXMAAACNCAYAAABFVZpPAAAAAXNSR0IArs4c6QAAAARnQU1BAACxjwv8YQUAAAAJcEhZcwAADsMAAA7DAcdvqGQAAABhaVRYdFNuaXBNZXRhZGF0YQAAAAAAeyJjbGlwUG9pbnRzIjpbeyJ4IjowLCJ5IjowfSx7IngiOjM3MSwieSI6MH0seyJ4IjozNzEsInkiOjE0MX0seyJ4IjowLCJ5IjoxNDF9XX3UDXA0AAAf4klEQVR4Xu2db2wTV9r2r/f9QqUEEyBAQkEkpE02KaElXcrfBEUsLQg2aDeg1T7sFqxu9kO1VGxBVbRAP5TyKEKwW7XVfmhYuXTbrbrFW5EtgjZFUUOBpjxNadMmTyj5w0IJSVMIBkvl0/uec+aMPbbHju3YjnGunzTYc87JzNiMr3PPde6Z83/mzZv3/0AIIeSe5v/qV0IIIfcwFHNCCMkAKOaEEJIBpJGYV2PW9hNYsuV3et1CxatYslfUbX8Bk3RR8qnDun/14bdP69V0Ys1b2H6qD3t9y5dYt0bXRUlV9Xq89+yv8Wa1Q6zNxSHx/r1n12NPnlGfTLbVpm5fiWQ8vzNCRoOReRB5L36J7S/WiXeNuD7swfC34q0Sz2YsUi3GGXks9cuR0/MO9q0u1MvDONGs6+PiFm56jNer11VBCkjlvpLBeHxnhITn3hDz9j+gbd86tL3yPO7qomRxfc8JjCz7k4h2m7FArOdu/hJ7hXji3D/xhdEkwTTgtwFRtmX511sIDvryVi1ADjz4n3frdUl8tA7fUq+DosMalbyH8OZEiELLV6rI+71nV2KbLrIS03dGSIpJgZgXY63TibUlejXtqcffVbT7OVDkQM7Qqyr6fWVPo65PNOb+xOK+JNaFUDfo9V9ugX3QN4TrY4rEg/Hg6k35chO9RoHGgT2/E+K2Afjoi8QJWO+NdBNDbZkUX8axy7poVMJ9Z8b5vmnJdL1OSGpIbp557lJs+nkpJmMAZ1wncVEXmzi2nEDpfL1i0utG21uHjffSK19fZLyXWOsU0md/DgU4jwvBUfvsF/DQU4uBzw7gmw9adGE0yEj5V2Kbl9DfM1OVFAhR73cX4u9/Vava6liASw0P4/rmPmwwD/HWWTQGC/DTzdhb+4BesXIJ769eExjtq7YzhZiHt02kDVS3bCj0b5OA9LZ/duM4ftPiUX7xHxcBn//jOF4co61gbOsWjv35E7yuy8YP2WGtx9S2t7Gzw/jMG+ddGdOxTV+yCTVlk4HvzsD1YfBZT0hySF5kXrIWTinkd7rQFCLkxmBn6TQhwtI+UcsB9I/oahPTXrGrU7Rg5KIXyClDzmxdpJlUXoZs9OBKTEIuxXIdcs79t4iM/4nhXGD43Yexr+EscmqDPXMHflrfh5VDsq2MpN9B/5TlqHutQdcLtJDLjsDXRpZL0Y9FjOV2tPVSt0wOvj2ADVY7xrrPBPK6+20l5JmNBy8eNoQ8UfzQdhSuswPA/Svg3LwUjNFJKkiKmMvIxLk8H7c7m+B691P8oMt9VNSiIMcrRG7sHvjdjk7cQRZyy6t1iaQaOcVZIpK/IH6qsXF9z8MWS8WB3AfFS/MWvGInvj3vWNrW4+se8ZI71+dzL3pERORCuJvNiF60aT4njmjKAiyKJfvkr2t0Z1CIRvn3Kqo3Owix/N70z7fioNsNd7jl0FbdLl0xM0TCLLVzjWY+b9t+OVRuNBtXuk/C9e8u3M4uRY1zLYp1MSHJIuFiXvy4U11iDpx14WhbiIwrHKVFwEgnRq7pgrFw7Xlc6QWyi6v9aYuzq5GbAwx2WS2ZWGnEiV9arBUb+i9EGoSsQ56I7O1JtOdtcgS7amtRG27ZeUS3S1euYOef38Yvwi3uK0azjk/s6/WSyCh7TAx/iqOuMxhAPlY4N2Fp2POBkLGTWDHPXYqF9+v3KcTTJUJii9WiLJaR8xhoN9bHB9EZfHRJROHLscaXq96ANdIm6fk86X532hMycJjpTEZpBeNzkjwSK+YqEnGhqfM28pc74Xw8RSdv+wUM+qwWw2K5c7El6WmMo5E3Ww+g1pr+9q9QIPPDfbZIoqHNIpe0sFkkMgHAuULE5TIBwMXBUJJUkpfNIgdAl+cDcgA0yDef9MRRPPLYdXTt+4Pf0zYzV0IyViQ6a+WGXZ2B2mZxJy64gQeeKsPw3zZhMBE2jh36xp0Ra4aLYNFrfdiQa2a0GFkxcjA16rTGNMtmsZLIbJZ0JhHZLIoI5z8hySApA6CKCANAxqBlEeY+oQctZRrh+jzcsc1YiQ61zZwy5FeXIbv3ZPKEPGp6IO8xyZlpSa0kAp27nsE3IJkJACo1kUJOUkQKnmcub6JYAZx14WS3LpIE5JD3qCgdMu8c/ujbNg9dM3h8HfoDPHEdvcuBz5C6BBNVZC4wb71XtVbkjUFm9G3mtdtgk7eeysjciMZlKqQNnq/wl8PfoFWvRo+R1/2ow5M2Ub4RjeuVYC5/4h94jQrjfM/ubAqbAEBIMuDkFMnC+gyVAI9cPsDrT/jpFJubhgghJE6SZ7NMdB6cqSLy0PRF+QAv/ZYQQhIExTxZfDsEOQRQ8EjQ3ZlPNxu3/zM9kRCSQGizJJMwnnnAc14IISQBUMwJISQDoM1CCCEZAMWcEEIygISJeWFhIe677z69RgghJJUwMieEkAyAYk4IIRkAxZwQQjIAijlJClsPueF27UalXieEJBeKeSayajfecLtx0KnXCSEZzwQRc3PShoPinQUteiHlhBByjzHBIvNClFui1cplJcjS7wkh5F4mYbfzyzzzgYEB/Pjjj7okjZAR+DMl6D4/hIoZHXpi40rsdtUB3aJsMdBUewxzXDtQ4egT73chYOpj9fcVwPmX8GTDaV0YPZX1b2DHYn+34bXZTnAb9DcFTMCs6ku68ZLzKja6a0S3ZGDdlvSpa2wfjG7Q934tdrn0imC044pmnyYhxy/xtIu/3Y/YvzFCSKxMrMj8XAf6ClZj9yrx3rkRFTdOYf+5m/BiJuasOo39rX2iIjB6lxgRvBfd52KVJdlhuIXIAe0v+2fJb8RG4xgUZpsh0YmYbZrEcdaEDiA6KrDDvRo3zW2934esxTt83viRnbr85XZxtIZ4m/uUi1XIpfAH7FP8DcS23qgPGrIcZZ+SkG2JpalfVxJCUsIEs1mOoKM/CyXLKrF1QSH6vg6IvwGXEHvxUrjA6qBXoqpERJz9Qvg/1kXRIjsMh1cI+ZMBf3u6YZd/3dfGejVwBLuEaEoh3RjUsfS9b9mWPt6Zs2LMGRFXGqtFBN/3vmWfH+9H43mvEOqNIeMHEfdpty1CSMqZGGI+f6qIrIdwVQjSkSYRgZbUCQHqQ4clUjWQYi9eCsr9graqCiUOIVbBwh8FssOApxutFiEPRrXRxxaArVDbHXPsGFcaods6PTgk/pVXKca6QeR9htsWISS1TLDIXPBxK7rlsOf5Y5ZIMgtT9VyjUuy9FqtFiZWnHcdiFqtKzJkmXm5cHd0z9txEr34bTNaMMJOgjoH5M6S3XYgalcljWTaYrjgh5F5j4om5kNb9ztrwA5lS7D2m1WJYLN7u1jgG8U7j6g3xMm1OoO8dI97vw8l8/PR+rxz1AI/bvwRaQoSQe4MJIeaVs2bqd9GgB0Kl1aIslngGPg2UaDpKUBVgWwRy5Gvpjdu0cZaL2DnOfX98FcowCeOl29sp8WG7Le2jE0JSxwSMzIOwEz7lVxei5pkKZMUz8Kk53XBKbCcLFc8E3pRUWX/Qn83iOoZ2j2izzZq5shUHpeUR9757cVNcXdgNZirMfQYdV1yo70psq8bckjh2mcbpkdE/ISRVUMxt0QOhgngGPv0cwa7al4RwBvrTdThmEWlp+4g2kCmAZpsazDz/UkCeeWzIbTYZHZJlv/50QsNqauq38c0PxSrv4jPKVEiZSqm2YaQxNnbrakJISpgYNw3FgXEDjs0NRIQQkoYwMrdlK8oL5J2O1owXQghJXyjmIcg7MmtQ6GlHY7iMF0IISTMo5j7MJyvuQAX4TBFCyL0FPXNCCMkAGJkTQkgGkLDInBBCyPjByJwQQjIAijkhhGQAFHNCCMkA0kfMc5dik9OJtSV6PRwVr2LJ3qOYNVuv+6jGrO0nRN0JFFToIkIImSCkjZhPL5qDyXe6cJ7P9CCEkJhJEzEvxuKyybj9n2/xgy6JnRYMvrIObfvWob9dFxFCyAQhBWJejLWj2Scl85GP27jaE7+UJ4xo7R5CCEkjkptnLoXx56WYjAGccZ3ERV0cyHQs3VyD0ltn4PrQpsXsF/DQU4uRrVcNvOj/2yYMXpPvpVf+HApyVIXAWqfR28BnB/DNBy260GDSE0fxyGMI+Jvix51YcT9wu7MJR9vSoIMhhJBRSF5kXrIWTinkd7rQFFbIBbkPYo5Q6oHLNi3kYKcQYe9xwz5Ry/EeXWnit1dC6zTXWjA8AmQXV2OSLjKoRk5xFtB7MkD8L37oQlPnbUwuq4Hz8WJdSggh6UtSxHz6kk1wLs9Xka3r3U8j+uDhBz5FxL2iSAitOwEeeAtGLnqBnDLkWLNgZlcjV0T0g12HdYGfH9qOwnV2ALh/BZybl4rrB0IISV8SLubSoqgpm4yBs64oLIoIA58RhDYe7n4gom9kIbe8WpcAk8rLkI0e3AjXWXSfhOvfXbidXYoa51pxtIQQkp4kVsxzl2Lh/fp9NKiBzwF8lRJf+jBu9FqtFsNiufOZGx61Phr5WLiE8TkhJD1JrJgPf4qjLsNvzl/uHMVvno6lC/OB73rD++kJxtPV47daVOTvxXBH4IBoAAG+fzRXGoQQMj4kxTOPym+ONPApufYfyPnds2b4bRGfjx4v7W70jxhWi7JYRjoxYs16sWD6/vjuzKi+PyGEjDdJEXPFKH5zcYUR8Ya/41PbIo/VwqFLHFueQ4GQ+Dt6PXaMgdDs4lrkF2dh8MzzuKtrrJi+vxrAtUuXJISQNCN5Yi5RtssZDCAf8wNuwinGfJnHPcodn563DohIugile41nrswdPoA2d6eu1cgccl2/ZL2M2rNQ8JRe3/5CUCoicLejE3dyijArJ8zAp/b9oxvAJYSQ9GB8JqeQXvRyRLiRiBBCSCwkNzK3JfUDn4QQkulw2jhCCMkAxiEyJ4QQkmgo5oQQkgFQzAkhJAOgmBNCSAZAMSeEkAyAYk4IIRkAxZwQQjIAijkhhGQAaXTTkJ7L84YbbW8FTUghp4+Tz10ZOY8Lr9g/HCvx1GHdv/6E3I8K8fe/6qJ0Yc1b2F6/HL5pT+HB/zQ8jBPNejUKqqrX44+LHPB+cRy/aZmCQ8+uxHyxnc//cRwvXteN7iXKV+K9NcCxP3+C13WRZFvtr7ERn+AX7iu6JIPJewhv/tdCZHm+wl8Of4NWXRwX5rZwJeQ7TTi+fWkScfzRMtp3ps6rucBleQ7dwp7frcejDqC3+W3s7NBt0gRG5kHkvfgltr9YJ9414vqwB8PfirdSPE81Y5FqMc6YQt7zDvatLtRLbEIeyi3cVDN03MLVe1HI5Q9S/OC8X3wVIjqvn/kK3nkr8Wa1+exNknZc/wa/+fPb+IVYjl3WZWmJB1dvGq83v1cFacW9IebtfzAmbE5BVH59zwmMLPsT9grxXiDWczd/ib1CPHHun/jCaJJgGvDbU31ifzbLv95Cnm5lkrdqgYjIRST+br0uiY/W4VvqdVB0WPc2c3FIRlYicvpNi81nkULRfAVZi9bjULkuy1SuezAoX0XPPOao1iewSY7Kx5vRvrPvb6p5Fbw3jN9LOpMCMS/GWqcTawMegZvO1OPvKtr9HChyIGfoVRX9vrKnUdcnGnN/YnFfEuvSMtHrv9wC+0B5CNfHFIkHoyMOz030GgX3DFXVCzFfWgGRbJSOT1TEN3/NSmzTRYTEQ+8NGTAEX8EaGrdpnKeVTK5nnrsUm+S0axiwfdytY8sJlM7XKya9Fs/c9MpNrHUK7bPDxkuXzzl/ajHw2QF880GEqeFCkJHyr8Q2L6G/Z6YqKRCi3u+2eOfK6liASw0P4/rmPmwwD/HWWTQGC/DTzdhb+4BesXIJ769eExjtq7YzI/rf0gaqWzYU+rdJQPnqRf34y2EPNipP3cDw2QOjYOVNz9MrEuUxmgLrUF7jT3qO46Np61U7tY3hhYYfKTqTQK9eRNuW/SGsb2u0m2VzPCFobxTRtM1IjO8KzW/jWK4xXmIQ9N3G6F+bYy8m0Zwbdm1MVNup4fcZ+TzzE8s+E4GcmUxOaKNmJhunCW2SF5kHzJ8ZLORShIWQTxMiLO0TtciJKHS1iWmv2NUpjJmDfPN6WjBn3r8Sk5BLsVyHnHP/LSLjf2I4Fxh+92HsaziLnNpgz9yBn9b3YeWQbCsj6XfQP2U56l5r0PUCLeSyI/C1keVS9GMRY7kdbb3ULZM/nAewwWrHWPeZaBwL8cdnF+LmPwxP8xc2loX8QZdf1PVy+YfhU79XK4XaQlElfnbjOP7yhQdZ4v2besCyV3yXPynVgiDFRAu0ub1jl+eqziQkqi6fpwZt/7crih/p9Sv4X9Esq2guqnTRRGT+ml/jj9O+0t/tcXzuEd/t7x7yfydR+9eygxbbEj+Kz81zQyyvYSH2+LxB2YFocdb18tyAOH9Czo0oiPY8M4RcdlL+th9Nq7QcV+KJaqrMJJMUMTfnz1TTrtnNn1lRi4IcrxC5sXvgauYgEUfIeT39GDPvo/eC+KnHxvU9D1ssFYecqlREM1vwip349rxjaVuPr3vES+5cn8+96BERkQvhbvZlw9Sj+Zw4oikLsEgIWdT8dY3uDArRKP9eRfVmByGW35v++VYcdLvhDrcc2qrbxUZvsyVq7risrJhZuf5orLXleODIvhCEj6QQzJsXIMBZjlv4yIyOHA4MNvsjwqxpU9TrthVGZsFrlijqdbcU/Ln4WdAg5rZi8SP29KPV3osKwoPWHrFNx1RLxB89UkjeE8Jkv6zXQmEInH0bsZiiKTMk7Or1klRvX0bavkh2DN9J+UI86gjNfmpt+cS37rPArFG2ODdeE5055llFPzqiO88cmDNVvFy+HHAl97o7BVlao0yVmWwSLubm/JmRpl1zlMo0w/CTKcfEtedxRc4VWlztnyJOzbwPDHYFpTjGRCNO/DJyWmL/hUiDkHXIE5G9PYn2vE2OYFdtLWrDLTuP6HaxcAUdcaRgGd5iEAE/MLuMgLky2Ia350rQJbaRbWMKvoH+0cYw2GcM+k7BnDgiNCkkvogwZDGFwoMXD9vV68UUtY5P7Ov1ksyUt9DvNj5G70gdqCoSna/NOExrVz+8on7qDF0wBkLPMz3+Y3dlmAosU2WucG7C0rAakHgSK+Z6/sxU4+kSIbHFajFm3j+PAbs5PlOG6Aw+uiS0YznWPK2L0IA10ibp+TzpfndqMS6nrdGl1UeNmjwHZokXaeNYtyUjX5nbS9KFGDrSCG2sV3fREd159rr7bWXlKUHX7cYnNXUySitSF58nVsxVr+RCU+dt5C93wvl4ij5I+wUM+qwWw2K5c7ElRTcXhSdvth5ArTX97V+hQOaH+2yRRJMcmyUyxsDafHn5boku1Y8pVnSamBysskaqvmUcb/zJGJslIejod6qIvo2CuIgtLTa288x/JSXHBYwAISWCLpM+nCtEXC6TPlwpHQxNimc+2mDA3WE5aDktcOZ85aPr9zFzGAOfeQ2rRVksXgx3xDbwmXiMKHxEDaba+dvJIBk2yyioQUhxudsWPuMheuzslHDELihVuXK78d0YlSk2S6JQ9oajAFVhLSvtxweNm0iqSgvUnaUx2Xdxn2fy/0QLelTn1RiImPSRfJIi5ooIgwHGoGUR5j6hBy1lGuH6PNyxzViJDrXNnDLkV5chu/ckBhPhx4+JHkiLNmemJbUyE9E3VcyXHqpGZhPEZbPIH16biL7F5XE0UdTrF0XbiIJiJbyHS2KnteUrlYX06H8FZhlVVa/0DWwabeZio9W7znsIvxfnht3duhGJ+jwTEbw1O0eSNxc/Ec2SeeOPmfShUhPtkj5SQAqezSIT6lcAZ1042a2LJAE55D3o2vcHQOadw59LbpuHrhk8vg79AZ64zjmXA58hdQlG31I/Ys09Fyx6rQ8bci255iHPUDGxPkvFzGu3wSZvPeV55otuBeV4G5e7Abnd5vMrNNImeQ2Vlr818swfvWnkBBvblSltMqLVl8/WfOHgXGeF3XNjbI4lHHqbg2n4TI3UYP9dBf8fG+v2HWlorrb+f7U0D22j/3/1miT4uSZR73PU80xjc/4k91kqhsZldzaFTfpIBZydP1lYn6ESYK0YD/D66RSbm4ZIzAR2DLrQBpV7HOFmFELudZJns0x0HpypIvLQ9EX5AC/9lowZ3+X+hqBLaysiopN3AybG1yckPaGYJ4tvhyCHAAoeCbo78+lm4/b/jEtPHC+uYKe8E1DeqWqXVywvudUTFYNuOCEkw6DNkkzCeOYBz3khiUH5qRP8eeZkQkMxJ4SQDIA2CyGEZAAUc0IIyQASJuaFhYW477779BohhJBUwsicEEIyAIo5IYRkABRzQgjJABKWmig984GBAfz444+6hCSFVbvxxjMVyEIfmmp3IQnPQfTj25fG046XnPtxWq8SQtIHRuYkPB/vx5P68blNavJSQki6MrEi8+BIE160v/wk9n+sV0lYth5yo2YaI3NC0pWJE5k7D8IthBznX7JM2NAIbDuIZMy/QwghqWSCROaV2O3agQpEF1lW1r+BHYstT0Pub7LM0iOnZqtBoZ1/LDuMDYXoe78Wu1y6bFSM7UH8zbFZ1v0GeeIx+tfBn8ErOrEnGwJbq2jb8iB1uzYmo0XmwdsK/M78xLJPQkj0TCzP3DE14CH5oUjRdwsRHBJCakbvTegrqIHbtVvUSo7g2Hmv2FYJqlapAh9bFxSKf/vQEbWQ+yncIPY745Te50to9xSixrdPQdT+tfkZgPaXzc9Qi0ZsxG7f8RpzhSpx1vW1L7cDi3fENU+o7DjKv/bvS27LK7+zoG0ZQi47KX/bUzPqLMdFCImXCSLmp7G/tU+8CoGMNLGxcyMqHNJHt2aJHMGu98XfOiqw0WmUnD7XDa+IkUuW+aRWsBXlIuL0nj8WX4aJjLR9kexptHbLDmO0zscG32cIHAs43bDLt15Zv1p8E0JUrVG26CwaZSdVsDpmcT3d8GTglYjY1inZ4RSUWyysSsyZJl76OwK+nyM7OWZBSCKYOJG5a5eIBGXEK97LqFHNWB/olxuR9RCuBouLq0NIHzBzlhbvj1vRLbaTVVLlj5yd5UIgveg+F59l4O1uDWuZxIL6DJ5utIYVyEpUlWSJNqFzYZqd1NSYe5BQer+XMzZaOY2rN8SLTcROCBk7Eyw1UUToTn2JL6NtHakf1BG3IsKEv1kzTJXTkb7FalEi2n9qnKNMHf3euDp6xxChja/TihrDtjE6SGMJGHPQHNlZi5dU9G92pm68UR/rvgghdkwwMbegIvUmFXEXVlm86Qh4v7fIvIrWTavFsFj6vo7LYEkgOvqdNieqzxOOocFYrhEsA8IWL1yJtg3SkjHaGFdJWYt3UNAJSQATV8xtOPJ1YLTtw9ZCMQZCldWi6uMb+Ew0yt6w+ww+tB8f4GcbVC4rEd1TjJ9DfXbRkbWOniUUiLxK0oLuu+IhhMTLBBFzET1aM0M0xkCgRYhcx4S4ZKFim7Wt+NsN9haK8pgdFdgh6uMe+EwwpxtOqSuGimcCxwMq6w/6BjaNNoWosXrXq3ajbnFW7J+j96bo5sTVzQL/tmTWSqjNYvN/sKoKJY6gKx5CSFxMnDtAQ+7+lNg930TnpAuRMQmfC222HcudpIZNMTNoH0aeuEyRNI4vJPfdQujxRfMZtD2i1yTB+fFR71Pn15vIukbUBRy/wub/ILacfEJIOPigrTGhRTPKm5EIISRZ0DMfC9omiN0vJoSQxEIxj5utOCgtg/4m2gSEkHGHYh4r0vdVOdI1KAzz/BFCCEk19MwJISQDYGROCCEZAMWcEEIygITZLIQQQsYPRuaEEJIBUMwJISQDoJgTQkgGkD5inrsUm5xOrC3R6+GoeBVL9h7FrNl63Uc1Zm0/IepOoKBCFxFCyAQhbcR8etEcTL7ThfPduoAQQkjUpImYF2Nx2WTc/s+3+EGXxE4LBl9Zh7Z969DfrosIIWSCkAIxL8ba0eyTkvnIx21c7YlfyhNGtHYPIYSkEcnNM5fC+PNSTMYAzrhO4qIuDmQ6lm6uQemtM3B9aNNi9gt46KnFyNarBl70/20TBq/J99Irfw4FOapCYK3T6G3gswP45oMWXWgw6YmjeOQxBPxN8eNOrLgfuN3ZhKNtadDBEELIKCQvMi9ZC6cU8jtdaAor5ILcBzFHKPXAZZsWcrBTiLD3uGGfqOV4j6408dsroXWaay0YHgGyi6sxSRcZVCOnOAvoPRkg/hc/dKGp8zYml9XA+XixLiWEkPQlKWI+fckmOJfnq8jW9e6nEX3w8AOfIuJeUSSE1p0AD7wFIxe9QE4ZcqxZMLOrkSsi+sGuw7rAzw9tR+E6OwDcvwLOzUvF9QMhhKQvCRdzaVHUlE3GwFlXFBZFhIHPCEIbD3c/ENE3spBbXq1LgEnlZchGD26E6yy6T8L17y7czi5FjXOtOFpCCElPEivmuUux8H79PhrUwOcAvkqJL30YN3qtVothsdz5zA2PWh+NfCxcwvicEJKeJFbMhz/FUZfhN+cvd47iN0/H0oX5wHe94f30BOPp6vFbLSry92K4I3BANIAA3z+aKw1CCBkfkuKZR+U3Rxr4lFz7D7ziJWuG3xbx+ejx0u5G/4hhtSiLZaQTI9asFwum74/vzozq+xNCyHiTFDFXjOI3F1cYEW/4Oz61LfJYLRy6xLHlORQIib+j12PHGAjNLq5FfnEWBs88j7u6xorp+6sBXLt0SUIISTOSJ+YSZbucwQDyMT/gJpxizJd53KPc8el564CIpItQutd45src4QNoc3fqWo3MIdf1S9bLqD0LBU/p9e0vBKUiAnc7OnEnpwizcsIMfGrfP7oBXEIISQ/GZ3IK6UUvR4QbiQghhMRCciNzW1I/8EkIIZkOp40jhJAMYBwic0IIIYmGYk4IIfc8wP8HC7k3hCgSWBsAAAAASUVORK5CYII=;" vertex="1" parent="1">
                    <mxGeometry x="-829" y="3200" width="371" height="141" as="geometry"/>
                </mxCell>
                <mxCell id="89" style="edgeStyle=orthogonalEdgeStyle;html=1;entryX=0.75;entryY=0;entryDx=0;entryDy=0;strokeColor=#33FF33;strokeWidth=5;" parent="1" source="86" target="88" edge="1">
                    <mxGeometry relative="1" as="geometry"/>
                </mxCell>
                <mxCell id="86" value="" style="rounded=1;whiteSpace=wrap;html=1;fontSize=31;fillColor=none;strokeColor=#33FF33;strokeWidth=5;" parent="1" vertex="1">
                    <mxGeometry x="-824" y="3192" width="372" height="156" as="geometry"/>
                </mxCell>
                <mxCell id="88" value="Puede funcionar un ngIf con un signal o con un atributo." style="rounded=1;whiteSpace=wrap;html=1;fontSize=31;fillColor=none;strokeColor=#33FF33;strokeWidth=5;" parent="1" vertex="1">
                    <mxGeometry x="-725" y="3452" width="430" height="121" as="geometry"/>
                </mxCell>
                <mxCell id="96" style="edgeStyle=orthogonalEdgeStyle;html=1;entryX=0.547;entryY=0;entryDx=0;entryDy=0;entryPerimeter=0;strokeColor=#FFFF00;strokeWidth=2;" edge="1" parent="1" source="91" target="92">
                    <mxGeometry relative="1" as="geometry"/>
                </mxCell>
                <mxCell id="91" value="" style="shape=image;verticalLabelPosition=bottom;labelBackgroundColor=default;verticalAlign=top;aspect=fixed;imageAspect=0;image=data:image/png,iVBORw0KGgoAAAANSUhEUgAAAzoAAACSCAYAAACNFr+qAAAAAXNSR0IArs4c6QAAAARnQU1BAACxjwv8YQUAAAAJcEhZcwAADsMAAA7DAcdvqGQAAABhaVRYdFNuaXBNZXRhZGF0YQAAAAAAeyJjbGlwUG9pbnRzIjpbeyJ4IjowLCJ5IjowfSx7IngiOjgyNiwieSI6MH0seyJ4Ijo4MjYsInkiOjE0Nn0seyJ4IjowLCJ5IjoxNDZ9XX26WMufAAA5WUlEQVR4Xu3df3BV5Z0/8Lfff6gTCCGGn0INYMOCQDUtgiA4GYrCQMPsBrez61bMKP7hqpNdHYepP/4Q7TAObZnq9jsjdiK27k5X0h1SHFFk+EoEQVq0orBQEmJRIBghBjKWv/w+Pz7n3uf8uPee+wtyb96vmQv3nHtyft9zn895Ps9zrmppafmmo6MDvb29ICIiIiIiKgf/R/4nIiIiIiIqGwx0iIiIiIio7DDQISIiIiKissNAh4iIiIiIyk4Zd0bQgLEPPYbac23Y/+pLMk7Uv4C5y6cCfQfw4fNP4ZKMLq41WPb7n6Dm7cn4za9k1GCx5FU8tHY+qmQQ6Mcf138Xb+yQwRgWNSzHv91UiYEPXse/7BqJn/37rZii5vOn/3wdz5yRiYasSWZ/YMd/4ZFDMkqbdSv+Zwmw9efv4mUZRYPXPU3/hJXXAV3B45gDb172+9IvY4uhEk/ctxzfq5TBy/ydLNQ+8+Zj9H+EX7z0CXbLYMK4G/Dbf56NChksxHEaWuy58nedgXPS7Nda/C+v5UOH+W2aJAPKp+/i79tOykAJ8bYj1TUjjsB1Ja95XSFDvXzGGp0iG/fMn/HQM2vUu00409uP3r+otzqw2LkDN5kprjAvyOn8HdYtniyv7IKcsK9w3vxOfoXPhvwPoy48qIuKujhuDRa6Dn2EP/VPwsr7bsAiGUVUWP145qX/wt//XL12lGBBRbFBzkls1dvw83fRVTkb/9bkFMI0KYxA/ZDrbf3FB/2YsmQ5nhgnn1NG9zTpgPgk3g4G3mc+wdufVuJ7/3wr7pFRVOYOqcDGfN9eV79RMm6oUuf/v5h98V/Y+qmMK2lDr3w2NAOdgw9i/7pl2H8ZanPOPPEG+m75CZ5Ugc1MNVxz55/xpAos8N5/4wM7SYGtx493nlDLi3j9/lUEf/fH3TYTVboG57W1MiY3u3u/Mv/3qGCOkrzCw9bIO0C6EJqi4EaDTtc5fW734/wXdjgfL7fZH87i1uZcefnvs0mYZWq+PpJaz5M4pAsboyp9NwcWTa9FhfrMK6TvPtKNAVRi1GgzSBnoO74rr9N3eKNrl19u0wVe3pTJlg7S/+ff1Svl9V3fCJNpvBf3ceF4AVuqGmB3v3uvMvwtHurlsxIMdOqwtLkZS6fJ4KC3Fr8xtSR/AqZWoursC6bW5PknNsnnheYtT73ajqthnYYmw/9wF6ID+LM4k1cNTlA/Pjuv/zuPLjtiaFIX0h+YtJ10qWkn8Yi+037drfjZLBlFRD4V1SPlXTojMZE1ODlQAYxJa+lIk8bSj2e2fYSBytm4vyGRB1lWTFBSqCBDp0ypQvOsY++m+Q3UKc3L8b3zXu2JfsmNLwY7l41OcU3s//9U57j6LS7HYCcpRfmsZh5WlVTZOr7SaqOjD8QPp2METmNP63Yck9GeyrvewPQpMuDpctroeG1zPO5nhrTrQUTbnQlP44Z75wDvP4dP3twlI+PQNSw/UvM8ju7OMWZMrQp4utuctjomfWwmjq//Ls7ceQIrvFX8ai82BYOTB3bgyabrZcB1HNsWL/HXEplpx6Rtb6NT69bccjb8t0Vg8kSnduMXL/VjpckRtSLbKWTMEbbtXsbqv+2d7Zs2lJsfzLFVwUVUuxgvjzUhsMys1l8xKTej4uTzSjsK5Jr7m2wDtLXG3Yao7Qy22Qisv9du6D/P4wdmn+l5fISJ3t8Ej0O55HLnyRxrqG3fU5m2nYhNw5IBJW07kjj7Nua5bZj5jUydlx2aV3QOd6bvSWF556tsl+yT0HfONx7+v5FJYjP7wbZJ+WxBprZB9ruX/NkJLlPWXxdmA+dG+LoRnFeKHPpMxzyr9feO51ex9pU9f3Pcr57geZ3inA1+VxJ851vwepZHu4PEfs1z+8x8RuFtMw85plHfkRTfx5THI9W5n7Vs9plz/qb4jgePU/T6FeI42XnoNmRvV+saSFlW4vffmWfwHEtz7eyJukan+N1O95mR6bspIs9tZx2jzwGnzBNx7UvI43pcd3szFlwLXDjcji37v5Sxpa90anSmLUWzDnIuHkF7KMjRAYoKcqpVgKJT0szrOXT3ycceL2Ut6jNjF/qODQBVM1A1QUaJYbNmYDg6cTKrIEed988sQ9V7P8W6xf+N3hqg97XvYt36vahqCrbRqcT3157ArWf1tLoG5nfoHjkfa15cL58rEuToICkxjR6vA6JsAhU9H0lnW3OLvvJcjxVuipu7zELTd6ukUG7uoOw4iYqblvtqM/SX3P4AeHda3kVXirss+m9tg347bSg3Xy48Xu6+vWujCvG+eekL6D/JhSWwzOCdNbP+s3HeW7eI9bck5abzZIzApR+7O9WFq7IWi/K4Iz1lidqG6o9k/aNTTe5pWghs87Yxuf6/9d2lHYkfrLA/1F1qO35w30Lz46L3La67LpGnn81xGhL0tpsCjt0fUe1EvJQ1c+dQxkXRP4T6x8t3t/HYdeHvifxQe9Ns/VQd83/PpW2K+hFdAbzoLcvMS7fL8M/L/gDDOeZqO8/NLmJtZD+e2a9/tPV5qM83dW6pAvuLwYKUae+mrgdTF+K3+i65Op3T16RmorddFUZ08Gq2U+60u+e2vrZIwSO5z/T+j2jLYs4NHXzIfgtdN5wCsczr73/+EUat8H9/4x9zu/4/OOetW8T6G5VYNFXtrE8/jbWvXj5mj8WsXI+33md1nybWPXGdCuwzWxDUhUSZTtd6K7pgmyzE6X0mhXCZ7hfqRzB4zsZm2mLYa15u3yEh84l37oXTK6dUq+MRkQ1xT509dhVTJ+VR21PYfRY6Tur1dvXCwLwKfJzUd1yf1/r6ar7v0qFPl9qXfzddfseuQBujeN9NW9YwwZJMk886Fvo3+NhbrWg/fAEjZjSi+fY6GVv6SiLQuWbuKjTPH2+izNbX9iEUZ9Y3obZqQAUA+be5uXToMC6qeLxmVoOM0RpQVadi9K4P1c9uds488V0nTa0SNd9R/+24C89HBSadv3OmXYuPO9V/NZMS7WpuuvF6E9TsSPTathY73lNrNHImblJf9th+tUQCpcnYpP/e1AZ5wZN63e+111mNDW1taEv1+tlqmS47vrvYUkCZIhdxfVEMp1F46V2zwxdGfZfS+VEJ5eaPHqWOZj/+94hz5PQPkXvHY9ZsVTDSd4PcHydZpiocrAz8qHftcO5EHfrU/CCNrXEDBUVFObpXE99y0yhImwK9LxLb5QVPo5w7xDbX3ncXLVFAdH881bZ0em0i1GcqnE4WLL30oCyPU1r6h9DJkQ6+5KJtLupRn5uX92Nif0iip1GvoqaE+M+hnI+pKgzalMdAbY/68U4Oe/v/dd80L7fZH/zvLcj2h04du8Bdypf36GDMKTwothDWjd3OObR7l38dCk6+YxWVdnsj8+0T53ul3JFPU1MWl+/OqJpnINC/Z8FsVASCLrv/VVAWSu/S65TmujGuEmPVf10mkPAEj0mWx1ytf/LOb3TbJoybhL9Tq+BfbhqprndxBa+96rh5gWwyeAq2y1IirlOLGmara5var878du/qUNPlcv571D43BU8bKBYvgFfU91k3btc3qLwbTTZwUNeRbeFz3AaZcW+eRSvsPqvExFHqv0CQHPyNKfRxqqj8Ktlhhvq+9zg3NOKluKYx61ZT09K1P0WNTUoxv5teWSPi+GavkL/BSV/u34LWvaeBaxeg+c55uEbGl7JBH+joqrTGGSNwem9ryqq0yum6q+jD6DslI/Jx6imcVFfy4XUNGCajMKEBNVVAz5FAN9VZ2YQ3/iF919LdH6brEGANxtXI25BCt7HxbMajTU1oSvV6ZLNMlw31g+srgEi+qPcDnCpA+OJ8dKHxvCrgyFtDekhJXGzk79LdPbJ3yiJ6IIn8UQ+uf7RFNfqCm0WvJmf60aP+y7kAoeT2Ayj73yew/4P7WMv2OKWlCxfeHamIl/xA6gJ15Ofm5f24Or2MRb1SpRwUQiAAyJXXsD7teWb2f1Tj0hQF2lzIOekynQvomoHL1YZAak28YL3iptkSaNjg2C0gJtPpkoGGDY5z6y0sWPi3DXqTgb4pjIe+c7ZHo1CBK3SH3p7ziUBE9rUu9KYsXGd5zGMFL3IjKH5nESm2Lx/mmuGQoC9S4lqUqiYq8HuSE3sNCQYhxWBqeFXB1GQmqPPZ1o4EbkZ5pJYi97S1Qu8z+bu0NQhFOE6+eeXfOYw+xokbYUtsamDWN0lifjdNWaNAvxOF/Q0OOLodrX84ggvDp6OxeSlKvW5ncAc6NfMw+1p5fxn1H+n0pa+ZtLW+Azh90A5fGSpQevu4+p2djyUPyCisxxKdetb5p6K3r7lcbIBg76YlLj765ct7zUIiHcGdZ0TBJ03HCQX9Ub/STMHR2a/qFZkHn0HBjxMlpEpdCUvzIx+oyYsjXGPmthexTLApNZ3/5k2XY5pEZpV4YoWtNTFpHibdb5JNx5TCsClYeHdhJWVEF1C9tLD4+zJLsnyvgJp8ue0QsuHVJLgFr6ibM4U95leCSct091nwmqGu2W+bY+gFtYq5E+4GbyN12dEWst15qVcu17N0fOtRYGZfJFJUvTS+YgVXhd9nOlCzKc3JefrX/fIdp1z50oNVWaFHf6dzupFzeb+bl+83eDxmzy3tep3BHej07sOWVpszOH5+8+XLGTz4IXrUqWLT12za2sVjuy7Tg0VTGzdBOjNo8trT/Ai1+vk3iVSzQitO6lo69q6pTgFyLz7JV27pKE6NgS6k6cJSFnd5B87ZrhlLng5y9EXQ1w7AFgyzVdjjVC6pa4Vha03y/GHMsnCv962uEQn+6EfOI5H/LudO2ju6+bCFpEStib5pIUHW/St0rZctWNgf/GQNmO0KWQcMy/EDnVoTVSOZL6mBMal0if3lvHzpWXE5tZEmqEtfEx1SjICuwBKpWe51I9ReTVKizHVavrcSDCSvK/IskMC1LPHKq+ZW2lEkgmc3pblw9HfOW4bdrmRNUsVNwXYuhVCcfZasabffO3+bz2Iep2KQ1K+IlPW8FOG7WZyykvC1iU+dTVUqSqKNTqacwUu9ugOB6mSqmWba7cj7rL2E0+8P2PQ1k7Y2gN5D2XVCUHi29qbPdGwQ1Z6mGIqRuhYUSAEpRLVrOrqQZoKdZFe0Jvc5qiOAVFXDMfjTXGJw71BHSdTE5JaGo9mUKHVh3JNLISygoMepTFLXCsSeOxkafJu0Sn/7GStVSlU6kl7SH/FQ2wz0HV0T7EhqRjH4alSlXYNur4NPP3JSfNzvmjoHdFfIarsqdD58Ic53xZ92UoQULpcO6iTYSXzHCnrMRdbfYwk+U978Sd5oCKfg2fX0H7cIiTaT/u+uv+BWiBS1KNJwXpafV2ExA1PbqLYjWAtgnz0VcUy834Ccb9YUa5959LVXgp3E96LYyyyWNLUzUWJ+NyNvYkltZUamPOIoUlnJaxOPz/dEt4kvQSUR6BhpcgZtBwJTMekO6UBAdwW9fBwuRvasFo+ZZ9UMjG+YgeFd29FTiPY/eemELv9UjXG6xy4D9zTp9BjnadyStlCop5rru2bBH9xQmxzT0LUS3/P1cKR+8HQPT5l+lFNJeeGL5gUhqS6u9nMtQwE4DVuAdtcpeecyawU+TuTwOugI7ttZ7rOWTprG8cE7v6HvUyxSGHGD/UDbGEufL8FAWwqvxag1kW1M2bBWxu/e9ZH5rkU3bE41PkuhRsqqUKcb0V93a2HSjNT8g/MJXxMKeczFmZP4X32uJTqDyUAKW6lvyNjODbTwPOXuvtOhg97uUKpNzAKc6SxDp1AWqjYxcc6naSdTQLZzgeD5aRuY62MdbKOX+A3Io7ahsPtM/UYGgy45/m4gXPDjVFTyu591O5p4303bQY3TWYk+55aMxEDg6xS62aW/J3q9XEX4DfbaxJuOv94KPsCldJXWc3QM/cDQBcDeVmw/KqM03zNyOnFk3YOAfq4Oks/KiXzOjuh5fRm6fW1w5Jk6uhOC0GcFZp6jMx997rN1lJtePIEVNc6zdGS6cEWVfiio96wc77k9ESKey3PZn6OTaDAsdP59xF32zNPqO2/qIqKrxDOkidh0CRnQIpepC3H+/HqdluI2/LTrFLNve8UsN5vn6KR5VoG5IJoCgf4RDqZSRK9D1PoG96tOmzhU56ynuaB6z3bw72P7t7pr4WQhIPNxGhoij7UcM93dqL0zLPvTfBgUPq6h8zbiXA/t/+C+T5w3EXzTBs9/vT6fYlbovApvQ/B7UmihbdT7IfFMGn3n3TlXZRK1cWZ84jkyMa4TCZH7zFuODHoyTiv7NcYzssLfpajvevxjnjzvrFTXIzu/iOe2RMh8TUueR/5UM0/gOOl13wbcH1jf8L4QoWtL9Hcqetnpxb9eZ5Luex5Yt6gCbGgbPcn55vedy7zPQtceh2/9I87/WMddZHec/L+T9hzxfo9k/vI9j7X+Ka6N0b/7EeeiknHaqGPpO+b6Oy7PqQv8/vvnlZxOP+oh4/qlPIfSkOdUXgyWrctACQY6Q5QX5ITa5KzBst//BN8fefyyBCv5sF/IeD+oZUEupPoZPml/lHzBhYwjoisjRaBQvvyFxJQu037xCm6hQrBXMM0maC0ztgCfIuimEhXjRiflpXRS14a674wxNTnhLqg34Qxj1MFJqpbTNyxVhYx8UuSIiPJyUlIE3dTIIFUYkx7wsm3HlS3bdiWcuhXV3fmQogI9/Xwt/lYQZYeBTqn4y1noJke1N663w54HdmCFztgroy6my4ntAUr3nhTViYC+k3MrpuhqZt7JIaIrRHf0oTt5SJXvf0+TTkdTAVHeaV2Z2cb44baItr2D+jzO84HKiq5x+yfTlknXpvGuP1F2GOiUih134fn1e9E39UfStbS8mq5Hd1uxe1+j3OmeaOzT0kOdCJjeVi5P4YGIKB3vpkyoAxVTk6DTpS5PyrEOuvSzWXwPclQv+zDNoZJO6Er2Sjn0tp0of2yjQ0REREREZYc1OkREREREVHYY6BARERERUdkZtIHO5MmT8a1vfUuGiIiIiIiI4mONDhERERERlR0GOkREREREVHYY6BARERERUdlhoDPU3fY4XmlrQ1vbBqyWUUWTWJa8Wh/HQvmIqKjk3NvQLMNERERU9hjo0OXzzrO4u6kJTerV3i3jiIiIiIiKgIFOPoI1FG2v4PHb5LNSkQg+HsVmGUVEOWreINeC1DWkq3/mXjPST0tERES5Y6CTK12gebgeOLDR1FDY1ybgHhZaiIae1digg5aZh9LUVi7E461taKw+iI2Ja8ZGHOyfjEYGO0RERAV3VUtLyzcdHR3o7e2VUYODfo7O6dOn8be//U3GDCa6wNKCeqgCS/Oz6JCxqSxc+wpa5lTIkNLdjqZHvPoTXUBqxOT+iHnpYGrFZJzY1oRHW2VcRnZ+UH+zday73BNod2ttdG2UCtQSaxW1fEdwGwZUgHf3ev/U+k51Y60MKFHTeMy0usCXYpnBefn3WVI2y4wmx7IysH802Uc6mM1unkpw/wb3v0i7/nL8U+/r6HlGs9s57ehG7BzdYpZp5tuz0ixDDeHgL+/Gs+/Yqb1lJ7nLynafyTkuQ6FlKfb8OqvmtxUTzbzlgwznZWrBZVqh71JwO1OcZ+nZ/TFqt513ymMj++Zs5DqMCe0TIiIiyg9rdPJROQpT5G00XQBqkwKcdwe3HSdqG52G+Jux9cCAmtc0LAqkva2eqQtgJ3AodpCTNHmFWu7onf67xm7j/9jtZbxtgCqIedvQhE1Y6aTp2bvZvjvVvzwIzGlB28+yv0+tC72zPk4uS89rQO+zwLySBcrktDtHr8kyfbADz+4+of6fjFmBhuoLb5mmApUBHH0vtyDHV9v3y/NY7Fv/GPusdas6bkDFtEXJ42asxiwdHHUfihnkOKatweIvNmKjOucq1PtXVkDtP3VOqi2ddossRa//zEPJdQ/VOmSxz3QhXgUcY5x9sfEAUP9wVMcAehk2GLPTqvWqrEdLtueQXv/AMs05JB979HlmAwyZxvtuZn3Oqv3RHP9mxJix/qO5cOwY9e9ZfMYgh4iIqKAY6OQkWdBr1OkqqQpGzStRX6nvXrt3djfj0W3qb1UBbqUU9DreO6oKYU5B07CF2YEDW7MvzGr6TnjiznQHdh/VwVSmwCxCYhv8d5s71j+aGF64drHaEyrgcO+8q0Bqkw7gahdn3W6pY/3d/kKjmtdOHYzVzpKCtrYQE6vVf4HC/uZHcrgr3npIrb06mjPd47gQi6ZVqPnvzH5+U0aFAyQdWDo1BfH2mXfcAkFw8yz1t+qYtGd/ZlRUnsVOr6alsgJntyXPzYrRcnYE1lWvRyiwibXPVJC8SAXr3e2+GqmO9ZtMADd5UbjXPV3jkpx2Mw7p4149MTRdOqsb61Ghzv9NgVowv9VYOUcdpQObnOMr380cztlY5PhWOMGsV1N6wjkOREREVBgMdHLV+ijsnW71Xt8FjmhUbGtkIu7USiExcWf3nd04GrxzL4XZrGsTxMDR3ckCdB7MNvQfxe6UhX0p3PafR5eM8XgB3Kiso6uwri+C9+M78Nk59V9Od+CDpEDtBlK3LcK0SlXw/jiH4mfXebPd9Q+n6pwi/j6LCoIzH5M0fIHhAM4HVyAVs02uGPtMhge+CG1lisA7vD6bH2lCU1apa3KDINP5n+r7JceuEOdsFB3EJ2oo1TXDqymNWxtERERE8THQyYtNWTFpL/pOsCo66RoeX0pORGHWk7iDruej75g7d+5NYTaX2oSCklqTc59lLmimmSaYqpOZTetye6bytXESuhCsU7CSgWYbXlmb7bKsze06tSlZY2FSsPoPYmsuBVBdIyLpYDpFy65bRGPzOPtMzUvXZiWDYFuQP7E7l3Yr8em0QG+fmpevvZEVd5+d7Um5lZhYjJqTGGy6mHt8Um9nIZl0OSetsb1b1iHvYJ2IiIiCGOgUiqnh0YXb6JScKL473aaWx7tzL4XZXGoTCkpqTbJMHQpKXdCNIo3Ideqd175CvUxAE8HcITfT2No1nRaUU7AjtWo2FcvWuORXK7YZj3rrnwiC4/es5e6zzR87QbCpicit3VZctu2TTldM7v+oNi7577Mr1y6lo+es+jewjc6rKDUszRtMwO52LuEG63yYKRERUWEx0CkiXwHVFZk2YzslMHfuL0NhNi6TMha1DQmShuRrP2PZhulZbofZ9lxqLHTtmgQ7iZqybEitmt4Ok3KVe9pgiA6CTbDj1WBkuc9MpwQ2CLY1fTl0QhCb19FBnNrEDPvMFwi5vLY8xdiOLpyPOAdMux15bxQ5RS2KrUUKB/426Mql5pOIiIjSYaCTk9XY4PZgJmwDc6eQLgXU+nvcadXf6u5sIwqSpj2G7mXKdCmcYycEBdaxfqepaap/2F8bsXDthkT7EzvNZDS66Te3PY415u51ltshbUHcwrGuYQinrkUcg5RtQmIytWpqO3T6Uh5pgzo9KXh3PtheK7t9ZgMjXVtlalpy6IQgPhso+IIw3XNaqpSutPvMC4T8tRUL166xHVwUZTu8IDLZoYA+Ho3VA/4aKUkJnLzi8j3k17a3Usv01fhKhw2hGx9ERESULz5HJ1fShbC/8Bfx7AxdkHGfC6KkftaLN61Oqcn1mRo29Ut3resuw/bupLu5tuvn9fYUJbx+cbZBUs5kSAs+syT2MgPPNtGfbcIa3/obEccgu2cOhdm0rcLNJ0Gn4oUa1WfeZwnetkbOJw45hufsc2LssdAN4fV5JuuReIZMYL30Ml8G1qjlh54Bo2TcZ4HjqaYMfU/86yMj8+Db/2a7YLZJP1/KXcfIczKHfRw63i732TyxrxtERESULwY6g4oURmM+iJQKzxZYB2HBUwrIOT28tMgG7T4jIiKiIY2pa4OJ1z1vkXvUolTyfHZREXltdxLPwBk0Bu8+IyIioqGNgc6gsRobdEpLd3teKVOUK12bZnt7S/+gyStAeusafA+VHMT7jIiIiIY8pq5daW7OvpvLT5eJ0x4l5/YvxeG2H8m3zVBhDd59RkRERORhoENERERERGWHqWtERERERFR2GOgQEREREVHZGbSBzokTJ5i2RkREREREOWGNDhERERERlR0GOkREREREVHYY6BARERERUdkp30CnZh5WNTdj6TQZTqX+Bcx9cgvGTpDhhAaMfegN9dkbqK2XUUREREREVBLKNtC5ZupEjLh4BAeOyggiIiIiIhoyyjTQqcOcGSNw4a9/wZcyJnu70PP8MuxftwzdB2UUERERERGVhBIMdOqwNFNK2rQpGI8L+Kwz9zCnYOKm0BERERERUcGUVqBjgoYFKog5ja6UKWnXYN7s8cDnH2Ffr4xyTXgaNzxp296Y1/Kp8oEn2TbHviLa78g8brijQUYkDbtji/9vevfho8+B8fObsWruNTKSiIiIiIiKqXQCnWlL0fzD6abdTXvrdhyT0SE138HE4cDpTyOm0B0P3DsHA6/blDTzer1TPvQkU9bCn4lTu9DbBwyva8AwGWU1oKquAujajp5TMko59lYr2g9fwIgZjWi+vU7GEhERERFRsZREoHPN3FVonj8eFw63o/W1fWnb3aTuhKABYxdMVUFIWwHa3OxC37EBoGoGqtzangkNqKkCeo68JCOSvty/Ba17TwPXLkDznfPAuh0iIiIiouIZ9IFO3e3NaJwxAqf3tmLL/kxtbtJ0QpAmCMnFpTe3owcVqJmVTF8bNmsGhqMT51IFUke3o/UPR3Bh+HQ0Ni9Va0tERERERMUwuAOdmnmYfa28j8N0QnAaH2UMiArhJZzrctPXbNraxffb0G+GMxmP2WyzQ0RERERUFIM70Ondhy2ttn2Lbsyfvn2L1wlBV+r2OwXWf6Qzmb5maowG0Htol/0wiq+dUZwaKiIiIiIiykVJtNGJ1b4lXScE2qm/YkD9VzHa7SlN2u3k6mAbuvts+ppJW+s7jD6nEwKX184In+/J2M6IiIiIiIjyUxKBjpGhfUtdva0pCXdC4JFUs5ubUCljKu96DLUq/Lkow9mznRIMr2vC+LoK9Ox5CpfkE5fXzsh0pvDW5apvIiIiIiIaukon0NFMKtsenMZ4TPE9gLMOU65FdCcEjv5Xn0N331RMl2fkTOp9DvvbDsunwn3OjnnGTgVq75Xhh54OdCcNXDp0GBerpmJsVYpOCKSdUbzOFIiIiIiIqBCuamlp+aajowO9vVFP1ywRuu3LfGBPuufrEBERERHRkFFaNTqRLn8nBERERERENLiVQaDzJfa91sq2L0RERERElFAGgQ4REREREZEfAx0iIiIiIio7DHSIiIiIiKjsMNAhIiIiIqKyw0CHiIiIiIjKDgMdIiIiIiIqOwx0iIiIiIio7FzV0tLyTUdHB3p7e2UUlbrKu97A9CkyoPS8vgzdB2VgqHpgB55suh74ai82/cNdOCOjs7LkVTy0dj6qZDCveRERERFRUbFGJy/3ofbJN3DDHQ0yPDj0v7oM+9ep168P4KKMy8uEp3GD2s7aehkeqnbchecXT8Y69drWKeOIiIiIaFBioEOD0rhn/ownf/8qxpmhNVj2+xP48QNmIDe/WmIClHVRNTC6pmbnCTwZfL24XiYgIiIiolJTgoFOHZY2N2PpNBmk8tV7UoKSqagZad4UVXebra0xr/V70Tf1R2UX7NTd3ozmO+fhGhkmIiIiKlel1UanZh5W/XA6RuA09rRuxzEZbVKr7p2B3l+vwtcNTvuUvgP48PmncEkGjfoXMHf5VBlwdeLIugfRL0PpDLtjC268uUKGwi6+/xw+eXOXDCnBZXa1Yf+rL8lAA8Y+9Bhqjj2HkzWPmXU3f/9Fk/zNALrVdvWckrY3UH+769tqe+dguJ1B6jY4Zr/MwUCGz735uMvSgm19goLLDe6X0H7Iwk0vnsCtZ3+K55/YJG1jZuL4+u/ijR36U13D8xNcf/ineHfMT7BC7aa+99S0p/7RtsNRR/GP3rRe2xxP5++w7v61MiCk7U2fCnR+8ysZp+h1WFET3Q4n3WdGsD0PjmPb4iX4QIY8Zj7B09FZR12zteaWs4G/XY8f7/wRqvQ26/3jibOtqb5DRERERGWmdGp0pi1Fsy6gXTyC9sgCWgVq730Dk3qfs+1T1rWhp2oObrzrPvlckYBDF9AT0+jxOiCKGeRol95c5ft7XaC3w/blFu514X/u8nEqgHCWOUUFMe56aXX/atb9w/cHMFy9v2E5VOCl51+BmllOGyD9tyaos/PT049dvgVjJ8jnsd2H2iZV/HbW+0iX3ofJeQXb+iT3m325QY4Oim68+Yxa5+Tf4ObHsm6/pAv+Om1MF/6rbvmJTSEzAUMlvr9Wf7YDN8m0mPGgCYY2vdePKvX+IbU92xb/Dt1q2utvW2On8VLWFv8Uf/zKjio2k3YngZNXQ7St83qs2PlnLFsiE0k6ngmWvFqkPNbRLLNpjArwvHmp/RBVI9W7D1ta96gwZzwWNK/CvBoZT0RERFRmSiLQuWbuKjTPH48Lh9vR+to+fCnjQ7ranCDjJZzrUv9VfxvD7AhUTte3/g/gdKKA/hJOq0BBlZJRlXWgEMd9GH9zhQqE/iNRS6KX2f16pwpYlvqCk+FVZ3DSW/eqCgy8ngy8hte4t/z9tS6X3tweDoZiUesRqO3q36UDmhzmNeFpTJqiAyEnWDz1FI7roO3mJhV2xPfB/ckCfyKVrO24+kTXiOjhZM1G1cizeNer0RhZqQIL57MxwWqSLD2wwwRb3W9n26vaeiy5Ra3Lez/11Q59cL8NwL5/pwQeD/wjvj+yH3/8v4Xotc1b5gtS46WtxW/0fpu6zAmuPMewvbUdRy6OwPQfMg2UiIiIytOgD3R0m4LGGSNwem8rtuxPGeIYPUe8dLAoDbi6Wt6GnMHXiUCkgOpvxFgVmPQeCqRvnTlnAoqrbUt7q+tDp0ZpAF+nKv32HUafb1078XVfMBjK0am/qiVnb9isGRiu1uNcID3u0hd6I8bh6qyDSH+bnHETxgBfncVpGU7o/JOTztWP3r/I2xzVNkknBPrVdH0oWInlge+hVv3Xd8pJKTPW4mPdU1vNJNPBwk036q6uP8YHicAkD2aZ/Tj+TmCZfzmLPhVc1XxHhn2+xL7XWrHnc2D8/GasmstWO0RERFReBnegUzMPs6+V93nbhZ49qqRZNQfjE90k2xoXf5Ch6BS3J9/wvx56OlEzFNew0bpIa1PqfPPytYu5ckxanbteTzapwCx7w2p0u5ypmO6bl3pFtoWKK//AJVu+zggW/w59OnUu0fNbNtKs+8gxGC9vC8UEgonUPuflayOU3ogZc1An74mIiIjKweAOdEx7gla0H75g7jo3355fUcwGHsDY5V5hXBXsfR0DiIMP+tqimFewU4MYbI2GTjULzEteV/Ihnl7HAf52N9JmKUuXenU9kO7MwZ2X90qm2WWU6Ob5R6h1Cu5rbqlUAcJ8rFHvH3pG2t4UnaR+qeUuyadb66Comqk8nTl1Vv2rO2BwA7XkK7pW6hrMu7MZC66FqS1tZccEREREVGYGfeqa9uX+LWjdq4qH1y7Io2tcr72Mv+OAUJCTlQxpY1EpaoU2oQE1VZnS9oIaUFVXEWivlIaktFWMjm67k3uKWoD3QE5fmxzbXkenkelCu6+Xscsiy5qlX/3J3xlCwnrMVKdJ3+H/Z9rknD7bH67dMe125H06kh6XkDZFLYruor0R04dfwJE/tGL7URlNREREVEZKItAxjm5H6x+O4MLw6WhsXppDmk0B27Ik7MLX59R/gY4FEk49hZNdugYpl17R4mjA2KY5GB43YEmQ9XY7YdBdTadMXZN9l6pjgYNt6O7TKXovRH+ei0DNR7jNS7Gtx491V81Zt6NZix26F7hbHvR1AnDTi7qW6nii84Qz73ysgpPrcatXQ6Vrs5rGoC/Q65qtrbkeM71apWAX0poKEN/t1G2M3F7dUtDdSzcvUAGW7l56C/aVQK/yRERERLkorefoGPpu9AJgr3MnOsXzYsxzYKqdZ+mEnhvj8fdklh37HJxapzFE8Pkxkc/dSTzjR/7+nE2hs9NC1uc+1DrpdZHPtQml3snfyJCf+6yg4Hrrzz5Etfrbisjn34TnG3yOTrz1y8w8O2bGx/KMGvvMGPiecWOfo/P9XvucGPusGcizc+z0tfIMmcjn1AjdJsfMM/TMG8s8m8epQbLLiQ7lMk77VcQzd3xBi67B+m+Mc7bL459Xcjr9HKGM6xdYru7cY8HII2hP13shERERURkowUAnR16QEyp4ewX++A8MvVJCgRuVGX8AR0RERES5K53UtXyNqzY1OeG2LJLGRUREREREZWPoBDqmYwBg7PT77LCn/gWbbhXsYpqIiIiIiErW0Al0Tj2FT359ABenNIWe9WK6WM6yHQkREREREQ1eQ6eNDhERERERDRlDp0aHiIiIiIiGDAY6RERERERUdgZtoDN58mR861vfkiEiIiIiIqL4WKNDRERERERlh4EOERERERGVHQY6RERERERUdhjoDHW3PY5X2trQ1rYBq2VU0SSWJa/Wx7FQPiIqKjn3NjTLMBEREZU9Bjp0+bzzLO5uakKTerV3yzgiIiIioiJgoJOPYA1F2yt4/Db5rFQkgo9HsVlGEVGOmjfItSB1Denqn7nXjPTTEhERUe4Y6ORKF2gergcObDQ1FPa1CbiHhRaioWc1NuigZeahNLWVC/F4axsaqw9iY+KasREH+yejkcEOERFRwV3V0tLyTUdHB3p7e2XU4KCfo3P69Gn87W9/kzGDiS6wtKAeqsDS/Cw6ZGwqC9e+gpY5FTKkdLej6RGv/kQXkBoxuT9iXjqYWjEZJ7Y14dFWGZeRnR/U32wd6y73BNrdWhtdG6UCtcRaRS3fEdyGARXg3b3eP7W+U91YKwNK1DQeM60u8KVYZnBe/n2WlM0yo8mxrAzsH032kQ5ms5unEty/wf0v0q6/HP/U+zp6ntHsdk47uhE7R7eYZZr59qw0y1BDOPjLu/HsO3ZqtQR7XspQeP1jnmdGcF7BZXnn11n1t1sx0RwP+SDDeZlacJlW6Lsk+zghxXmWnt23o3bbeac8NnJOnI1chzGhfUJERET5YY1OPipHYYq8jWbv4NoCnHcHtx0nahudhvibsfXAgJrXNCwKpL2tnqkLYCdwKHaQkzR5hVru6J3+u8Zu4//Y7WW8bYAqiHnb0IRNWOmk6elCpSrcuXeqf3kQmNOCtp9lf59aF3pnfZxclp7XgN5ngXklC5TJaXeOXpNl+mAHnt19Qv0/GbMCDdUX3jJNBSoDOPpebkGOr7bvl+ex2Lf+MfZZ61Z13ICKaYuSx81YjVk6OOo+FDPIcUxbg8VfbMRGdc5VqPevrIDaf+qcVFs67RZZil5/FSSMcda/vTu61iHjeaYL8YF5bTwA1D8c1TGAXoYNxuy0ar0q69GS7TkUsf7mHJKPPfo8swGGTON9N7M+Z9U51Bz/ZsSYsf6juXDsGPXvWXzGIIeIiKigGOjkJFk4btTpKqkKRs0rUV+p7167d3Y349Ft6m9VAW6lFPQ63juqCmFOQdOwhdmBA1uzL8xq+k544s50B3Yf1cFUpsAsQmIb/HebO9Y/mhheuHax2hMq4HDvvKtAapMO4GoXZ91uqWP93f5Co5rXTh2M1c5yCtoLMbFa/Rco7G9+JIe74q2H1NqroznTPY4LsWhahZr/zuznN2VUOEDSgaVTUxBvn3nHLRAEN89Sf6uOSXv2Z0ZF5Vns9GqHKitwdlvy3KwYbc+O1Y31qFDnzyanFmnzIzoYmozFa/2F9PTnmQqSF6lgvbvdVyPVsX6TCeAmLwr3uqdrXJLTbsYhfdyrJ4amSydq/cNWY+UcdZQObHKOr3w3czhnY5HjW+EEs15N6QnnOBAREVFhMNDJVeujsHew1Xt9FziiUbGtkYm4UysF68Sd3Xd242jwzr0UZrOuTRADR3cnC9B5MNvQfxS7Uxb2JSDoP48uGePxArhRWUdXYV1fqAK0Twc+O6f+y+kOfJAUqN1A6rZFmFapCt4f51D87Dpvtrv+4VSdU8TfZ1FBcOZjkoYvMBzA+eAKeAF26Pzpwnl9jkow5El7nsk+HPgitJUpAu/w+mx+pAlNWaWupVr/gFTfLzl2hThno+ggPlFDqa4ZXk1p3NogIiIiio+BTl5syopJe9F3glXRSdfw+FJyIgqznmShUWqInDv3pjCbS21CQUmtybnPMhc000wTTNXJzKZ1uT1T+do4CV0I1ilYyUCzDa8Eaxxi2tyuU5uS6Wsmba3/ILbmUgDVtTeSDqZTtOy6RTQ2j7PPpDYrGQTbgvyJ3bm0W4nhtonQiVSm1kH2qX057WaydLYn5VZiYjFqTmKw6WLu8ZGXr11V4Zl0OSetsb1b1iHvYJ2IiIiCGOgUiqnh0YXb6JScKL473aaWx7tzL4XZXGoTCkpqTbJMHQpKXdCNIo3IdUqU175CvUxAE8HcITfT2No1XUDPKdiRWjWbvmZrXPKrFduMR731TwTB8XvWcvfZ5o+dINjUROTWbiuWdz7DWfWf7qjA2/e+V9YN9dO5cu1SOnrMVvranbmvotSwNG8wAbvbuYQbrPNhpkRERIXFQKeIfAVUV2TajO2UwNy5L3ZhNgsmZSxqGxIkDcnXfsayjfmz3A6z7bnUWOjaNQl2AulV8Uitmt4Ok3KVe9pgiA6CTbDj1WBkuc9MpwQ2CLY1fTl0QhBbdIpaTnzBo8tr/1SM7Yhef9NuR94bRU5Ri2JrkcKBvw26cqn5JCIionQY6ORkNTa4PUsJ28DcKaRLAbX+Hnda9be6O9uItDTTHkP3MmW6FM6xE4IC61i/09Q01T/sr41YuHZDov2JnWYyGt30m9sexxpz9zrL7TAFUH/hWPeuFk5dizgGKduExGRq1dR26PSlPNIGdXpS8O58sL1WdvvMBka6tqqxNrdOCOLzAr7GnNMAk5LzcvfHwrVrbAcXRdkOL4hMdiigj0dj9YA5rxIkJXDyisv3kF/b3kot01fjKx02hG58EBERUb74HJ1cSRfC/uJ31DNE7DM23PYNUc9Fsbxpw72cxWdTv3TXuu4ybO9Ouptru35eb09RwusXZxsk5UyGtOAzS2IvM/BsE/3ZJqzxrb8RcQyye+ZQmPdcm0LNJ0Gn4oUa1WfeZwnetkbOJw45hufsc2LssdAN4fV5JuvhPkMm8vx2z8t455kRfFZNxPfEvz4yMg++/W+2C2Z99XN/Mp6TOezj0PF2ZdyvUdcNIiIiyhcDnUFFCqMxH0RKhWcLrIOw4CkF5JweXkpEREQ0BDF1bTDxujQuVo9alEGezy4qIq/tTuIZOERERESUFgOdQWM1NuiUlu72vFKmKFe6Ns329pb+QZNXgPTWxYdKEhEREcXH1LUrzc3Zd3P56TJx2snk3P6lONz2I/m2GSIiIiIaahjoEBERERFR2WHqGhERERERlR0GOkREREREVHYGbaBz4sQJpq0REREREVFOWKNDRERERERlh4EOERERERGVHQY6RERERERUdso30KmZh1XNzVg6TYbJb8LTuOHJNzDXez30NIbJR0REREREpa5sA51rpk7EiItHcOCojLiCht2xRQUTL6BShgeFU0/hk3XLsF+9jnTJuDxV3sWAiYiIiIgGhzINdOowZ8YIXPjrX/CljCEiIiIioqGjBAOdOizNlJI2bQrG4wI+62SYU4qumbsKzc1L1ZEmIiIiIsrNVS0tLd90dHSgt7dXRg1iut3ND6djBE5jT+t2HJPRftdg3p2NmP7VHrS+5Z9Cp1ZNRxv27/o2brh3DobL+J7Xl6H7oAwYDRj70GOorZJBx8X3n8Mnb+6SoXTuQ+2TTRgrQ2GdOLLuQfTLkKZT3G68uUKGAsuqfwFzlwNHfn0Ok8y6679vw9Xeenap7Xr1JfXGLhdqm06PducXXp7H7JfqA/jw+adwScb5mGVPlQHNmZdu6+Psy5C+4HyD+3YA3b9ehZ5TMmjoYHaBCVaP/GEL9pXAqUlEREREg0vpBDrTlqJ5/nhV+j+C9tf2pU5Jk2Do4t5WbA+0zzEF+in6XbKgboMLOIVtKYgjWUD3ApBwQBSP/fszKQMNza5bOICAF+yYYGMcLvadwcnnP0S1CmYq+gaAY/+B4/hXZ/5OgJUIMsLb5Eob6Oj1aPgrPjFBlOYFKuHAKWPA5K1bIiiL2v8eCVhVBHU64lgSEREREaVTEqlrJpVJBTkXDrejNV2Qo2TuhEDXICQL6JcOHcZFVODqcTJiQgNqqoCePcnC+qU3t6NH/T92+n12RKGpYGKSCsB6XncCh1NP4fj7Axh+c5PTiUGFCmzaEtMMx2EcT9QujcPVE+St5qtJ2aW2pxOomoEqd5o4dKcFiSBHk3lhKqrr7Zi4ht2xVAVgKkBy5nfpzf9Ad18FahuC+/ZL7HutFXs+B8bPb8aqudfIeCIiIiKizAZ9oFN3ezMaZ4wwd/W37M/U5iZGJwR9h9HnqzkIGFedMg3rYq8u4BfesFkzTCrauUBt0aUvzqh/3QBmAL2HnLS5c39NUXOi1vXYLv9nZ875A7p8mHllqwFVdSpQ6/rQVwukA6evz6n/qr8d2Vvbsbda0X74AkbMaETz7Wy1Q0RERETxDO5Ap2YeZl8r7+MwnRCcxkcZA6I0Drahuw8YuyDZTbKtiQgEGYpO1Uo8h0ZeN9zRIJ/GN6xGt6OZiumBefnbxVw5oe1M1yYnpam4WrfLmdLkn5d62XTCGK6djXk18p6IiIiIKI3BHej07sOWVntHX6cvpb+jfw3mzR4PfN6VopOCuKRAXjUHN0pBPLoNCdD/qn0OjfuK11GB36XeAfWvbvMSnt/+deHlXk627ZBO93PW6dcHcqjR6cTXKoA0nSb4tk9eKdr1eDV6Jm2xlR0TEBEREVE8gz51Tfty/xa07j0NXLsAzXfOUyFNhJrvYKJuuP5pfmFOoh2JryCeX7ARTkHzy/R5IaRKj0vvPlTr2pau7bG23wRsVdUpHhiaPkUtTHdG0IwF19rOCDKnLRIRERERJZVEoGMc3Y7WPxzBheHT0RjxjJW6+ukZOiGIpyhBh7SPCTe4FyZdTn1+7wtOxwMFNOFpXH9zBS6+n+zIIB6phZlyY3K9dO9vKVLX7L6bikkp0vf6dx3ARV1TdlemTh1099K6xzXdvTR7XCMiIiKi7JXWc3QM+4wV+LoctuOGH25Pe+c/svtj6cZ5wOk62qZr2fc+TrfIWUv3LBoRuVxvmdK9tE2h83fT7O+iOfr5PcGusb0us6P4nxUUmJ/uza0NuD6wzzyh+Yaeo5N5/XQve40zLqZ5VhIRERERUXolGOhEMM/YQUEKxsk2KYF0NQlU4j8w9EqxgUTFoF9PIiIiIqLiKZ3UtZQK1QmB1oCrq9V/UV1Q59SlMhERERERXQllEOjYB0u2vlWIJCdpMB96sGYDxjbpdinhLqaJiIiIiGjwKYNAp7B0l9FHunTHAO6zXh5DLQ7gwyvc1TMREREREcVTHm10iIiIiIiIHKzRISIiIiKissNAh4iIiIiIys5V11133TfynoiIiIiIqCywRoeIiIiIiMoM8P8BLs54t8/nAlIAAAAASUVORK5CYII=;imageBorder=#FFFF00;strokeWidth=4;" vertex="1" parent="1">
                    <mxGeometry x="-202.9985714285711" y="3190.997142857143" width="826" height="146" as="geometry"/>
                </mxCell>
                <mxCell id="92" value="if con varias condiciones e invocando un else&lt;br&gt;&lt;br&gt;Todo esto depende de &quot;id&quot; que se le asigne al ng-template" style="rounded=1;whiteSpace=wrap;html=1;fontSize=31;fillColor=none;strokeColor=#FFFF00;strokeWidth=5;" vertex="1" parent="1">
                    <mxGeometry x="282" y="3435" width="618" height="215" as="geometry"/>
                </mxCell>
                <mxCell id="93" value="" style="rounded=1;whiteSpace=wrap;html=1;fontSize=31;fillColor=none;strokeColor=#FF3399;strokeWidth=2;" vertex="1" parent="1">
                    <mxGeometry x="428" y="3188" width="168" height="34" as="geometry"/>
                </mxCell>
                <mxCell id="95" style="edgeStyle=orthogonalEdgeStyle;html=1;entryX=0.75;entryY=1;entryDx=0;entryDy=0;strokeWidth=2;strokeColor=#FF3399;" edge="1" parent="1" source="94" target="93">
                    <mxGeometry relative="1" as="geometry"/>
                </mxCell>
                <mxCell id="94" value="" style="rounded=1;whiteSpace=wrap;html=1;fontSize=31;fillColor=none;strokeColor=#FF3399;strokeWidth=2;" vertex="1" parent="1">
                    <mxGeometry x="-43" y="3260" width="114" height="25" as="geometry"/>
                </mxCell>
            </root>
        </mxGraphModel>
    </diagram>
</mxfile>